<svg xmlns="http://www.w3.org/2000/svg" version="1.1" xmlns:xlink="http://www.w3.org/1999/xlink" xmlns:svgjs="http://svgjs.com/svgjs" width="100%" height="100%"><svg xmlns="http://www.w3.org/2000/svg" version="1.1" xmlns:xlink="http://www.w3.org/1999/xlink" xmlns:svgjs="http://svgjs.dev/svgjs" width="100%" height="100%" viewBox="0 0 1000 600"><rect width="1000" height="600" x="0" y="0" fill="#fefefe"></rect><g><circle r="166.66666666666666" cx="388.18065897623694" cy="410.40281160684924" fill="#3182ce" transform="matrix(0.5642986848368884,0,0,0.5642986848368883,0,68.41024460098552)"></circle><path d="M299.0235151663782 484.72120682574973L273.02189054473524 485.36284503615457Q272.3802523343304 484.72120682574973 272.3802523343304 482.15465398413045L272.3802523343304 482.15465398413045Q272.3802523343304 479.12978813507914 273.02189054473524 479.12978813507914L273.02189054473524 479.12978813507914Q274.9468051759497 479.12978813507914 278.1855504284693 478.39648732318796Q281.3937414804934 477.6326323108012 284.29639052756283 476.5632352934599Q287.19903957463225 475.4938382761185 287.8406777850371 474.1800076548134L287.8406777850371 474.1800076548134Q289.36838780981043 471.8273342166624 289.36838780981043 454.0142353278048L289.36838780981043 454.0142353278048L289.36838780981043 372.8011704108518Q289.36838780981043 366.56811350977637 289.0322916043603 361.8322124329789Q288.69619539891016 357.0963113561814 287.8406777850371 354.31587911109386L287.8406777850371 354.31587911109386Q287.4129189781005 353.0326026902842 284.5102699310311 351.9632056729428Q281.60762088396166 350.8938086556015 278.2772130299557 350.2216162447012Q274.9468051759497 349.57997803429635 273.02189054473524 349.57997803429635L273.02189054473524 349.57997803429635Q272.16637293086217 349.57997803429635 272.16637293086217 347.0134251926771L272.16637293086217 347.0134251926771Q272.16637293086217 344.23299294758954 273.02189054473524 343.346921133221L273.02189054473524 343.346921133221Q278.61330923540584 343.56080053668927 284.9380287379676 343.6830173386711Q291.29330244102493 343.7746799401575 298.5957563594417 343.7746799401575L298.5957563594417 343.7746799401575L319.4337210973506 343.56080053668927Q325.666777998426 343.56080053668927 329.73048666432317 343.46913793520287Q333.82474953071585 343.346921133221 335.9635435653986 343.346921133221L335.9635435653986 343.346921133221Q359.3986153454223 343.346921133221 375.9284378134703 352.91038588830236Q392.4888144820137 362.4738506433837 401.2884242247084 378.1481554975586Q410.08803396740313 393.853014552229 410.08803396740313 412.5216310549597L410.08803396740313 412.5216310549597Q410.08803396740313 433.1457163894004 401.16620742272653 449.9199724614121Q392.27493507854547 466.6636743329284 375.6228958085156 476.3493558899916Q358.97085653848575 486.0044832465594 335.74966416193035 485.36284503615457L335.74966416193035 485.36284503615457L320.503118114692 484.93508622921803Q314.0561818101483 484.72120682574973 308.678642522946 484.5989900237679Q303.33165743623914 484.5073274222815 299.0235151663782 484.72120682574973L299.0235151663782 484.72120682574973ZM339.20228881791815 475.4938382761185L339.20228881791815 475.4938382761185Q388.6084310190893 475.4938382761185 388.6084310190893 411.6661134410866L388.6084310190893 411.6661134410866Q388.6084310190893 395.35017037650687 382.8031329249505 382.028538960483Q376.99783483081166 368.7069075444591 365.72333484798406 360.76281541563753Q354.4488348651565 352.81872328681595 337.70513299364023 352.81872328681595L337.70513299364023 352.81872328681595L336.60518177580343 352.81872328681595Q313.41454359974347 352.81872328681595 310.8479907581242 356.2407937423083L310.8479907581242 356.2407937423083Q308.03700431254117 359.90729780176446 308.03700431254117 369.7763045618005L308.03700431254117 369.7763045618005L308.03700431254117 454.86975294167786Q308.03700431254117 463.6693626843726 311.2757495650607 471.18569600625756L311.2757495650607 471.18569600625756Q311.70350837199726 472.255093023599 314.9116994240214 473.01894803598566Q318.1504446765409 473.75224884787684 322.76412895135655 474.30222445679533Q327.3778132261722 474.8522000657137 331.8998348995014 475.1577420706684Q336.39130237233513 475.4938382761185 339.20228881791815 475.4938382761185ZM448.9835311981334 484.2934480188132L426.4345312324783 485.36284503615457Q425.762338821578 484.72120682574973 425.6706762200916 481.9407745806622Q425.5484594181097 479.12978813507914 426.4345312324783 479.12978813507914L426.4345312324783 479.12978813507914Q428.1455664602245 479.12978813507914 430.92599870531205 478.48814992467436Q433.73698515089507 477.8465117142695 436.18132119053246 476.77711469692815Q438.65621143066534 475.7077176795868 438.87009083413363 474.8522000657137L438.87009083413363 474.8522000657137Q439.93948785147495 470.5440577958527 440.4894634603934 465.80815671905526Q441.0394390693118 461.10280984275323 441.0394390693118 455.72527055555094L441.0394390693118 455.72527055555094L441.0394390693118 406.31912835437976Q441.0394390693118 404.7914183296064 439.93948785147495 404.7914183296064L439.93948785147495 404.7914183296064L428.573325267161 404.7914183296064Q427.9316870567562 404.7914183296064 427.9316870567562 403.50814190879674L427.9316870567562 403.50814190879674Q427.9316870567562 401.5832272775823 431.2620949107622 398.13060262159445Q434.59250276476814 394.7085321661021 438.65621143066534 394.7085321661021L438.65621143066534 394.7085321661021L439.93948785147495 394.7085321661021Q441.0394390693118 394.7085321661021 441.0394390693118 393.4252557452924L441.0394390693118 393.4252557452924L441.0394390693118 390.6142692997094Q441.0394390693118 379.24810671539547 444.67538892827247 369.34854575486395Q448.34189298772856 359.47953899482786 454.4527330868221 351.7493262694746Q460.56357318591563 344.0191135441213 468.20212330978256 339.7109712742603Q475.84067343364944 335.4028290043994 483.7847655624711 335.4028290043994L483.7847655624711 335.4028290043994Q499.45907041664594 335.4028290043994 504.1949714934434 343.7746799401575L504.1949714934434 343.7746799401575Q504.1949714934434 357.3101907596497 496.4647587680901 357.3101907596497L496.4647587680901 357.3101907596497Q494.08153112944365 357.3101907596497 492.1566164982292 355.29361352694883Q490.23170186701475 353.2464820937525 488.1845704338184 350.55771245015137Q486.13743900062207 347.8689428065502 483.4486693570209 345.82181137335385Q480.7598997134197 343.7746799401575 477.12394985445906 343.7746799401575L477.12394985445906 343.7746799401575Q470.89089295338374 343.7746799401575 466.36887128005446 349.15221922735986Q461.87740380722073 354.5297585145621 459.61639297055615 363.3293682572568Q457.35538213389157 372.15953220044696 457.35538213389157 382.6701771708878L457.35538213389157 382.6701771708878L457.35538213389157 393.6391351487607Q457.35538213389157 394.7085321661021 458.4247791512329 394.7085321661021L458.4247791512329 394.7085321661021L482.2876097381931 394.7085321661021Q483.3570067555345 394.7085321661021 483.3570067555345 396.20568799038L483.3570067555345 396.20568799038Q483.3570067555345 399.65831264636785 480.7598997134197 404.7914183296064L480.7598997134197 404.7914183296064L458.6386585547012 404.7914183296064Q457.35538213389157 404.7914183296064 457.35538213389157 406.1052489509115L457.35538213389157 406.1052489509115L457.35538213389157 455.72527055555094Q457.35538213389157 467.30531254333323 459.280296765106 474.8522000657137L459.280296765106 474.8522000657137Q459.70805557204255 475.7077176795868 462.09128321068897 476.77711469692815Q464.44395664884 477.8465117142695 467.2243888939276 478.48814992467436Q470.0353753395106 479.12978813507914 471.3186517603202 479.12978813507914L471.3186517603202 479.12978813507914Q471.96028997072506 479.12978813507914 472.1741693741933 481.7268951771939Q472.38804877766165 484.2934480188132 471.96028997072506 485.36284503615457L471.96028997072506 485.36284503615457L448.9835311981334 484.2934480188132Z " fill="#fefefe" transform="matrix(0.5642986848368884,0,0,0.5642986848368883,0,68.41024460098552)"></path><path d="M664.8000176168439 483.1871465959622L639.0286132194365 483.82310369625077Q638.3926561191479 483.1871465959622 638.3926561191479 480.643318194808L638.3926561191479 480.643318194808Q638.3926561191479 477.6452347220191 639.0286132194365 477.6452347220191L639.0286132194365 477.6452347220191Q640.936484520302 477.6452347220191 644.1465536931871 476.9184266074036Q647.3263391946299 476.1613348213458 650.2032879816495 475.1014063208649Q653.0802367686692 474.04147782038393 653.7161938689578 472.7392799483646L653.7161938689578 472.7392799483646Q655.2303774410734 470.4074372473065 655.2303774410734 452.7520567964386L655.2303774410734 452.7520567964386L655.2303774410734 372.2580581027731Q655.2303774410734 366.0801891285414 654.897257055208 361.3862200549831Q654.5641366693425 356.69225098142465 653.7161938689578 353.9364368801743L653.7161938689578 353.9364368801743Q653.2922224687654 352.6645226795972 650.4152736817457 351.60459417911625Q647.5383248947261 350.54466567863534 644.2374047075141 349.87842490690446Q640.936484520302 349.24246780661593 639.0286132194365 349.24246780661593L639.0286132194365 349.24246780661593Q638.1806704190517 349.24246780661593 638.1806704190517 346.6986394054617L638.1806704190517 346.6986394054617Q638.1806704190517 343.94282530421134 639.0286132194365 343.06459883238426L639.0286132194365 343.06459883238426Q644.5705250933795 343.27658453248046 650.8392450819381 343.3977192182497Q657.138248741939 343.48857023257665 664.3760462166516 343.48857023257665L664.3760462166516 343.48857023257665L685.0295101403085 343.27658453248046Q691.2073791145401 343.27658453248046 695.2351074163676 343.18573351815354Q699.2931193896375 343.06459883238426 701.4129763905993 343.06459883238426L701.4129763905993 343.06459883238426Q724.6405523868526 343.06459883238426 741.0240186371435 352.54338799382793Q757.4377685588767 362.0221771552716 766.1594659342625 377.55770060517773Q774.8811633096483 393.1235077265261 774.8811633096483 411.6268309777788L774.8811633096483 411.6268309777788Q774.8811633096483 432.06830920133945 766.0383312484933 448.6940448231688Q757.2257828587805 465.2894967735558 740.7211819227203 474.8894206207687Q724.2165809866602 484.45906079653935 701.2009906905031 483.82310369625077L701.2009906905031 483.82310369625077L686.0894386407894 483.3991322960584Q679.6995839664614 483.1871465959622 674.3696577926146 483.06601191019297Q669.07001529021 482.975160895866 664.8000176168439 483.1871465959622L664.8000176168439 483.1871465959622ZM704.6230455634843 474.04147782038393L704.6230455634843 474.04147782038393Q753.5917422857029 474.04147782038393 753.5917422857029 410.77888817739404L753.5917422857029 410.77888817739404Q753.5917422857029 394.6074076271994 747.8378447116637 381.40372687835134Q742.0839471376244 368.2000461295033 730.9092723754112 360.3262915545022Q719.734597613198 352.452536979501 703.1391456628111 352.452536979501L703.1391456628111 352.452536979501L702.0489334908877 352.452536979501Q679.063626866173 352.452536979501 676.5197984650188 355.84430818104L676.5197984650188 355.84430818104Q673.733700692326 359.4783487541174 673.733700692326 369.2599746299842L673.733700692326 369.2599746299842L673.733700692326 453.59999959682335Q673.733700692326 462.3216969722092 676.9437698652112 469.771480147018L676.9437698652112 469.771480147018Q677.3677412654035 470.83140864749885 680.5475267668462 471.58850043355665Q683.7575959397313 472.3153085481722 688.3304303275204 472.8604146341338Q692.9032647153095 473.4055207200954 697.3852480887717 473.7083574345185Q701.8369477907916 474.04147782038393 704.6230455634843 474.04147782038393ZM835.5696408800417 484.45906079653935L835.5696408800417 484.45906079653935Q823.849860031867 484.45906079653935 814.0682341560001 478.2811918223076Q804.256324608691 472.103322848076 798.4115760203248 461.77659088624756Q792.5668274319586 451.4498589244191 792.5668274319586 438.67014957576345L792.5668274319586 438.67014957576345Q792.5668274319586 423.77058322614596 798.1087393059017 412.9290288497982Q803.6203675084025 402.05719080200817 813.2202913556154 396.21244221364196Q822.7899315313861 390.3374099538334 834.721698079657 390.3374099538334L834.721698079657 390.3374099538334Q844.5033239555238 390.3374099538334 851.9531071303326 394.0623015412378Q859.4331739765837 397.7871931286422 863.4609022784111 403.54109070268146L863.4609022784111 403.54109070268146Q867.3069285515847 409.50697397681694 869.0936651666813 415.59399193672164Q870.9106854532199 421.6507262251841 870.9106854532199 427.61660949931957L870.9106854532199 427.61660949931957Q870.9106854532199 431.85632350124325 869.6387712526428 432.82540098739724Q868.3668570520657 433.79447847355124 864.7328164789883 433.79447847355124L864.7328164789883 433.79447847355124L811.0701506832113 433.79447847355124Q809.3742650824419 433.79447847355124 809.3742650824419 434.85440697403214L809.3742650824419 434.85440697403214Q809.3742650824419 443.7880900495142 813.0083056555192 451.9949650103808Q816.6120625571544 460.2018399712473 823.6378743317708 465.50148247365195Q830.6636861063872 470.83140864749885 840.8995670538886 470.83140864749885L840.8995670538886 470.83140864749885Q849.8332501293708 470.83140864749885 855.9202680892755 468.1664455605754Q861.9770023777379 465.50148247365195 864.7328164789883 463.38162547269013L864.7328164789883 463.38162547269013L866.2470000511039 462.3216969722092Q867.5189142516809 462.3216969722092 867.5189142516809 465.07751107345956L867.5189142516809 465.07751107345956Q867.5189142516809 466.5916946455752 866.2470000511039 468.9235373466332L866.2470000511039 468.9235373466332Q861.9770023777379 474.8894206207687 853.6792764025444 479.674240708654Q845.3512667559086 484.45906079653935 835.5696408800417 484.45906079653935ZM811.0701506832113 424.83051172662687L811.0701506832113 424.83051172662687L852.6193479020634 424.83051172662687Q853.6792764025444 424.83051172662687 853.6792764025444 422.710654725665L853.6792764025444 422.710654725665Q853.6792764025444 418.0166856521066 851.226299015717 412.3839227638366Q848.7733216288898 406.75115987556654 843.8673668552352 402.48116220220055Q838.991695753023 398.24144820027686 831.511628906772 398.24144820027686L831.511628906772 398.24144820027686Q824.6978028322517 398.24144820027686 819.8221317300395 402.81428258806596Q814.9161769563849 407.38711697585506 812.3723485552307 413.2318655642213Q809.7982364826341 419.1068978240299 809.7982364826341 423.3466118259536L809.7982364826341 423.3466118259536Q809.7982364826341 424.83051172662687 811.0701506832113 424.83051172662687ZM926.4812225498625 484.67104649663554L926.4812225498625 484.67104649663554Q924.7853369490931 480.643318194808 920.8484596615925 471.4673657477874Q916.9115823740921 462.3216969722092 910.7337133998602 448.0580877228802L910.7337133998602 448.0580877228802Q904.5558444256286 433.58249277345504 899.2259182517818 421.9838466110495Q893.9262757493772 410.35491677720165 889.2323066758187 401.20924800162345L889.2323066758187 401.20924800162345Q886.9004639747607 396.93925032825746 876.6645830272593 396.93925032825746L876.6645830272593 396.93925032825746Q875.8166402268745 396.93925032825746 875.8166402268745 394.18343622700706L875.8166402268745 394.18343622700706Q875.8166402268745 391.6396078258528 876.6645830272593 390.7613813540258L876.6645830272593 390.7613813540258Q882.2064949012023 390.973367054122 887.7484067751454 391.42762212575667Q893.2903186490885 391.851593525949 898.8019468515894 391.851593525949L898.8019468515894 391.851593525949Q904.1318730254362 391.851593525949 909.4617991992832 391.42762212575667Q914.7917253731301 390.973367054122 920.0913678755347 390.7613813540258L920.0913678755347 390.7613813540258Q920.5456229471694 391.6396078258528 920.212502561304 394.274287241334Q919.8793821754385 396.93925032825746 919.24342507515 396.93925032825746L919.24342507515 396.93925032825746Q908.8258420989947 396.93925032825746 908.8258420989947 400.5732909013349L908.8258420989947 400.5732909013349Q908.8258420989947 400.78527660143106 909.0378277990908 401.30009901595037Q909.249813499187 401.845205101912 909.4617991992832 402.26917650210436L909.4617991992832 402.26917650210436L934.5972464964021 459.1116277993241L956.0986532204438 410.1429310771055Q957.1585817209246 408.02307407614364 957.4614184353478 406.41803948970113Q957.7945388212132 404.81300490325856 957.7945388212132 403.75307640277765L957.7945388212132 403.75307640277765Q957.7945388212132 396.93925032825746 942.4710010714033 396.93925032825746L942.4710010714033 396.93925032825746Q941.6230582710186 396.93925032825746 941.6230582710186 394.18343622700706L941.6230582710186 394.18343622700706Q941.6230582710186 391.6396078258528 942.4710010714033 390.7613813540258L942.4710010714033 390.7613813540258Q944.8028437724614 390.973367054122 951.1926984467892 391.5184731400836Q957.582553121117 392.0635792260452 962.7004935948679 391.851593525949L962.7004935948679 391.851593525949L983.9899146188133 390.7613813540258Q984.4138860190056 392.4875506262376 984.4138860190056 393.97145052691087L984.4138860190056 393.97145052691087Q984.4138860190056 396.93925032825746 982.9299861183323 396.93925032825746L982.9299861183323 396.93925032825746Q979.9319026455433 396.93925032825746 975.0562315433311 398.66541960046925Q970.1502767696766 400.3613052012387 968.4543911689071 404.17704780297004L968.4543911689071 404.17704780297004L934.5972464964021 480.643318194808Q933.0830629242865 484.03508939634696 930.1152631229401 485.00416688250095Q927.1171796501511 485.9429606972126 926.4812225498625 484.67104649663554ZM1016.575145090741 482.7631751957698L991.0157263934296 483.82310369625077Q990.1677835930449 482.975160895866 990.1677835930449 480.643318194808L990.1677835930449 480.643318194808Q990.1677835930449 477.6452347220191 991.0157263934296 477.6452347220191L991.0157263934296 477.6452347220191Q992.9235976942953 477.6452347220191 996.1336668671803 477.1304123074998Q999.3134523686231 476.5853062215382 1002.0692664698735 475.5253777210572Q1004.8553642425662 474.4654492205763 1005.2793356427586 473.4055207200954L1005.2793356427586 473.4055207200954Q1006.7632355434318 468.07559454624845 1006.7632355434318 454.2359566971119L1006.7632355434318 454.2359566971119L1006.7632355434318 372.2580581027731Q1006.7632355434318 366.0801891285414 1006.4603988290088 361.3862200549831Q1006.1272784431434 356.69225098142465 1005.2793356427586 353.9364368801743L1005.2793356427586 353.9364368801743Q1004.8553642425662 352.6645226795972 1001.9784154555465 351.60459417911625Q999.1014666685269 350.54466567863534 995.8005464813149 349.87842490690446Q992.4996262941029 349.24246780661593 990.5917549932373 349.24246780661593L990.5917549932373 349.24246780661593Q989.7438121928525 349.24246780661593 989.7438121928525 346.6986394054617L989.7438121928525 346.6986394054617Q989.7438121928525 343.94282530421134 990.5917549932373 343.06459883238426L990.5917549932373 343.06459883238426Q996.1336668671803 343.27658453248046 1002.4023868557389 343.3977192182497Q1008.6711068442976 343.48857023257665 1015.9391879904524 343.48857023257665L1015.9391879904524 343.48857023257665Q1020.8148590926647 343.48857023257665 1029.1125850678582 343.27658453248046Q1037.440594714494 343.06459883238426 1049.1300918912266 342.6406274321919L1049.1300918912266 342.6406274321919Q1061.0618584394974 342.21665603199955 1069.9046905006526 342.00467033190336Q1078.7475225618077 341.79268463180716 1084.7134058359431 341.79268463180716L1084.7134058359431 341.79268463180716Q1085.1373772361353 344.79076810459605 1085.98532003652 348.9396310921928Q1086.8332628369049 353.0884940797896 1088.105177037482 357.9944488534441L1088.105177037482 357.9944488534441Q1089.165105537963 363.08210565575257 1089.922197324021 366.2921748286376Q1090.6490054386363 369.4719603300804 1090.8912748101748 370.7438745306575L1090.8912748101748 370.7438745306575Q1089.8010626382516 371.83408670258075 1087.0452485370013 371.83408670258075L1087.0452485370013 371.83408670258075Q1084.2894344357508 371.83408670258075 1084.0774487356546 370.3199031304651L1084.0774487356546 370.3199031304651Q1080.8673795627697 358.63040595373263 1075.1134819887302 355.32948576652063Q1069.3595844146907 352.02856557930863 1059.3659728387279 352.02856557930863L1059.3659728387279 352.02856557930863L1045.102363589399 352.02856557930863Q1026.5687566667038 352.02856557930863 1026.3567709666077 354.784379680559L1026.3567709666077 354.784379680559Q1025.9327995664153 357.3584917531556 1025.59967918055 361.8101914551754Q1025.2968424661267 366.2921748286376 1025.2968424661267 372.68202950296546L1025.2968424661267 372.68202950296546L1025.2968424661267 407.38711697585506Q1025.2968424661267 408.6590311764322 1034.230525541609 408.6590311764322L1034.230525541609 408.6590311764322L1045.5263349895913 408.6590311764322Q1055.0959751653618 408.6590311764322 1059.3659728387279 407.9019393903744Q1063.635970512094 407.17513127575893 1065.3318561128635 404.29818248873926Q1067.027741713633 401.42123370171964 1068.5116416143062 395.0313790273918L1068.5116416143062 395.0313790273918L1068.9356130144984 393.1235077265261Q1069.1475987145946 391.6396078258528 1072.1456821873835 391.6396078258528L1072.1456821873835 391.6396078258528Q1074.6895105885378 391.6396078258528 1075.7494390890188 392.6995363263337L1075.7494390890188 392.6995363263337L1075.7494390890188 434.00646417364743Q1074.901496288634 434.85440697403214 1072.3576678874797 434.85440697403214L1072.3576678874797 434.85440697403214Q1069.5715701147872 434.85440697403214 1068.9356130144984 433.1585213732627L1068.9356130144984 433.1585213732627Q1068.0876702141138 430.16043790047377 1067.4517131138252 428.04058089951195Q1066.8157560135369 425.9207238985501 1066.3917846133445 424.4065403264345L1066.3917846133445 424.4065403264345Q1065.3318561128635 421.4387405250879 1064.7867500269017 421.01476912489557Q1064.2719276123826 420.5907977247032 1062.9697297403632 419.7428549243184L1062.9697297403632 419.7428549243184Q1060.0019299390165 418.0166856521066 1040.4083945158407 418.0166856521066L1040.4083945158407 418.0166856521066Q1025.2968424661267 418.0166856521066 1025.2968424661267 419.9548406244146L1025.2968424661267 419.9548406244146L1025.2968424661267 453.59999959682335Q1025.2968424661267 465.92545387384433 1027.2047137669924 473.4055207200954L1027.2047137669924 473.4055207200954Q1027.6286851671848 474.2534635204802 1030.4147829398776 475.31339202096103Q1033.170597041128 476.373320521442 1036.3806662140132 477.0092776217306Q1039.5604517154559 477.6452347220191 1040.8323659160328 477.6452347220191L1040.8323659160328 477.6452347220191Q1041.6803087164176 477.6452347220191 1041.6803087164176 480.8553038949042L1041.6803087164176 480.8553038949042Q1041.6803087164176 482.1272180954813 1041.2563373162252 483.82310369625077L1041.2563373162252 483.82310369625077Q1030.6267686399738 483.3991322960584 1024.4488996657421 483.06601191019297Q1018.2710306915104 482.7631751957698 1016.575145090741 482.7631751957698L1016.575145090741 482.7631751957698ZM1129.4121048847958 482.7631751957698L1106.2148125599847 483.82310369625077Q1105.3668697596 482.975160895866 1105.3668697596 480.2193467946156L1105.3668697596 480.2193467946156Q1105.3668697596 477.6452347220191 1106.2148125599847 477.6452347220191L1106.2148125599847 477.6452347220191Q1107.9106981607542 477.6452347220191 1110.8784979621007 477.0092776217306Q1113.8765814348897 476.373320521442 1116.4204098360437 475.31339202096103Q1118.9945219086403 474.2534635204802 1119.2065076087365 473.4055207200954L1119.2065076087365 473.4055207200954Q1120.0544504091213 470.4074372473065 1120.3572871235444 466.5916946455752Q1120.6904075094099 462.74566837240155 1120.6904075094099 458.47567069903556L1120.6904075094099 458.47567069903556L1120.6904075094099 418.2286713522028Q1120.6904075094099 410.1429310771055 1117.692324036621 406.75115987556654L1117.692324036621 406.75115987556654Q1115.572467035659 403.96506210287384 1112.6046672343127 403.23825398825835Q1109.6065837615238 402.48116220220055 1107.4867267605619 402.39031118787364Q1105.3668697596 402.26917650210436 1105.3668697596 401.845205101912L1105.3668697596 401.845205101912Q1105.3668697596 396.72726462816127 1106.638783960177 396.5152789280651L1106.638783960177 396.5152789280651Q1117.904309736717 394.8193933272956 1123.8701930108527 393.6383301410454Q1129.8360762849882 392.4875506262376 1134.5300453585464 391.42762212575667L1134.5300453585464 391.42762212575667L1137.0738737597007 390.7613813540258Q1137.9218165600855 390.5493956539296 1138.1338022601817 392.4875506262376Q1138.345787960278 394.3954219271032 1138.1338022601817 395.243364727488L1138.1338022601817 395.243364727488Q1137.7098308599893 399.51336240085396 1137.4069941455664 403.32910500258527Q1137.0738737597007 407.17513127575893 1137.0738737597007 410.56690247729784L1137.0738737597007 410.56690247729784L1137.0738737597007 454.44794239720807Q1137.0738737597007 460.6258113714397 1137.4978451598931 465.2894967735558Q1137.9218165600855 469.98346584711413 1138.8000430319125 473.4055207200954L1138.8000430319125 473.4055207200954Q1139.224014432105 474.2534635204802 1141.7678428332592 475.31339202096103Q1144.3116712344136 476.373320521442 1147.309754707202 477.0092776217306Q1150.2775545085487 477.6452347220191 1151.549468709126 477.6452347220191L1151.549468709126 477.6452347220191Q1152.2157094808567 477.6452347220191 1152.427695180953 480.2193467946156Q1152.6396808810491 482.7631751957698 1152.2157094808567 483.82310369625077L1152.2157094808567 483.82310369625077L1129.4121048847958 482.7631751957698ZM1127.292247883834 367.56408902921476L1127.292247883834 367.56408902921476Q1123.022250210468 367.56408902921476 1119.842464709025 364.384303527772Q1116.63239553614 361.1742343548869 1116.63239553614 356.90423668152084L1116.63239553614 356.90423668152084Q1116.63239553614 352.452536979501 1119.842464709025 349.3636024923852Q1123.022250210468 346.27466800526935 1127.292247883834 346.27466800526935L1127.292247883834 346.27466800526935Q1131.7742312572962 346.27466800526935 1134.8328820729694 349.3636024923852Q1137.9218165600855 352.452536979501 1137.9218165600855 356.90423668152084L1137.9218165600855 356.90423668152084Q1137.9218165600855 361.1742343548869 1134.8328820729694 364.384303527772Q1131.7742312572962 367.56408902921476 1127.292247883834 367.56408902921476ZM1188.828668254612 482.7631751957698L1165.6010922583587 483.82310369625077Q1164.753149457974 482.975160895866 1164.753149457974 480.2193467946156L1164.753149457974 480.2193467946156Q1164.753149457974 477.6452347220191 1165.6010922583587 477.6452347220191L1165.6010922583587 477.6452347220191Q1167.3272615305705 477.6452347220191 1170.2950613319172 477.0092776217306Q1173.2931448047061 476.373320521442 1175.83697320586 475.31339202096103Q1178.3808016070143 474.2534635204802 1178.5927873071105 473.4055207200954L1178.5927873071105 473.4055207200954Q1179.4710137789375 470.4074372473065 1179.773850493361 466.5916946455752Q1180.106970879226 462.74566837240155 1180.106970879226 458.47567069903556L1180.106970879226 458.47567069903556L1180.106970879226 418.2286713522028Q1180.106970879226 410.1429310771055 1177.1088874064371 406.75115987556654L1177.1088874064371 406.75115987556654Q1174.9890304054754 404.17704780297004 1172.1120816184557 403.32910500258527Q1169.2351328314362 402.48116220220055 1166.994141144705 402.39031118787364Q1164.753149457974 402.26917650210436 1164.753149457974 401.845205101912L1164.753149457974 401.845205101912Q1164.753149457974 396.72726462816127 1166.0553473299933 396.5152789280651L1166.0553473299933 396.5152789280651Q1177.3208731065333 394.8193933272956 1184.34668488115 393.42634444094926Q1191.372496655766 392.0635792260452 1193.098665927978 391.6396078258528L1193.098665927978 391.6396078258528L1196.490437129517 390.7613813540258Q1197.3383799299017 390.5493956539296 1197.550365629998 392.4875506262376Q1197.7623513300941 394.3954219271032 1197.550365629998 395.243364727488L1197.550365629998 395.243364727488Q1197.1263942298056 398.24144820027686 1196.9144085297094 400.3613052012387Q1196.7024228296132 402.48116220220055 1196.7024228296132 403.75307640277765L1196.7024228296132 403.75307640277765Q1196.7024228296132 404.6010192031624 1197.1263942298056 404.6010192031624L1197.1263942298056 404.6010192031624Q1197.3383799299017 404.6010192031624 1197.7623513300941 404.17704780297004L1197.7623513300941 404.17704780297004Q1202.6683061037488 399.0893910006616 1211.0871667647116 394.4862729414302Q1219.4757437542319 389.913438553641 1227.167796300579 389.913438553641L1227.167796300579 389.913438553641Q1242.0673626501966 389.913438553641 1248.0332459243323 400.5732909013349Q1253.9688455270252 411.2028595775864 1253.9688455270252 435.06639267412834L1253.9688455270252 435.06639267412834L1253.9688455270252 454.44794239720807Q1253.9688455270252 460.6258113714397 1254.4231005986599 465.2894967735558Q1254.8470719988522 469.98346584711413 1255.695014799237 473.4055207200954L1255.695014799237 473.4055207200954Q1256.1189861994294 474.2534635204802 1258.6628146005837 475.31339202096103Q1261.2369266731803 476.373320521442 1264.204726474527 477.0092776217306Q1267.1725262758737 477.6452347220191 1268.4747241478926 477.6452347220191L1268.4747241478926 477.6452347220191Q1269.1106812481812 477.6452347220191 1269.3226669482779 480.2193467946156Q1269.534652648374 482.7631751957698 1269.1106812481812 483.82310369625077L1269.1106812481812 483.82310369625077L1246.3070766521205 482.7631751957698L1223.957727127694 483.82310369625077Q1223.1097843273092 482.975160895866 1223.1097843273092 480.2193467946156L1223.1097843273092 480.2193467946156Q1223.1097843273092 477.6452347220191 1223.957727127694 477.6452347220191L1223.957727127694 477.6452347220191Q1225.6536127284635 477.6452347220191 1228.4397105011562 477.0092776217306Q1231.1955246024067 476.373320521442 1233.5273673034646 475.31339202096103Q1235.8894936759648 474.2534635204802 1236.1014793760612 473.4055207200954L1236.1014793760612 473.4055207200954Q1236.949422176446 470.4074372473065 1237.2522588908691 466.5916946455752Q1237.5853792767343 462.74566837240155 1237.5853792767343 458.47567069903556L1237.5853792767343 458.47567069903556L1237.5853792767343 437.18624967509015Q1237.5853792767343 417.3807285518181 1232.4674388029837 410.1429310771055Q1227.3797820006753 402.9051336023929 1215.8719868525968 402.9051336023929L1215.8719868525968 402.9051336023929Q1211.3900034791345 402.9051336023929 1206.9383037771145 405.3581109892202Q1202.4563204036526 407.81108837604745 1199.4582369308637 410.99087387749023Q1196.490437129517 414.2009430503753 1196.490437129517 416.9567571516257L1196.490437129517 416.9567571516257L1196.490437129517 454.44794239720807Q1196.490437129517 460.6258113714397 1196.9144085297094 465.2894967735558Q1197.3383799299017 469.98346584711413 1198.1863227302865 473.4055207200954L1198.1863227302865 473.4055207200954Q1198.610294130479 474.2534635204802 1201.1844062030755 475.31339202096103Q1203.7282346042296 476.373320521442 1206.7263180770183 477.0092776217306Q1209.694117878365 477.6452347220191 1210.9660320789421 477.6452347220191L1210.9660320789421 477.6452347220191Q1211.6019891792307 477.6452347220191 1211.813974879327 480.2193467946156Q1212.025960579423 482.7631751957698 1211.6019891792307 483.82310369625077L1211.6019891792307 483.82310369625077L1188.828668254612 482.7631751957698ZM1350.4526227422316 484.03508939634696L1348.5144677699236 484.45906079653935Q1347.2425535693465 484.45906079653935 1347.2425535693465 480.8553038949042L1347.2425535693465 480.8553038949042L1347.2425535693465 478.2811918223076Q1347.2425535693465 477.22126332182677 1346.3946107689617 477.4332490219229L1346.3946107689617 477.4332490219229Q1334.674829920787 484.03508939634696 1323.8332755444394 484.03508939634696L1323.8332755444394 484.03508939634696Q1312.1134946962648 484.03508939634696 1302.634705534821 478.1903408079807Q1293.1559163733773 472.3153085481722 1287.7351391852035 462.62453368663233Q1282.3143619970297 452.9640424965347 1282.3143619970297 441.45624734845615L1282.3143619970297 441.45624734845615Q1282.3143619970297 431.22036640095473 1286.2512392845301 421.8627119252803Q1290.1881165720306 412.50505744960583 1296.8808079607816 405.14612528912403Q1303.6037830209748 397.7871931286422 1312.1134946962648 393.6383301410454Q1320.6232063715543 389.4894671534487 1329.7991588185746 389.4894671534487L1329.7991588185746 389.4894671534487Q1338.9448275941531 389.4894671534487 1345.758653668673 393.1235077265261L1345.758653668673 393.1235077265261Q1347.2425535693465 393.1235077265261 1347.2425535693465 389.2774814533525L1347.2425535693465 389.2774814533525L1347.2425535693465 366.2921748286376Q1347.2425535693465 359.054377353925 1345.9706393687693 352.6645226795972L1345.9706393687693 352.6645226795972Q1345.1226965683845 349.24246780661593 1335.0988013209794 349.24246780661593L1335.0988013209794 349.24246780661593L1333.1909300201137 349.24246780661593Q1331.9190158195365 349.24246780661593 1331.9190158195365 346.91062510555787L1331.9190158195365 346.91062510555787Q1331.9190158195365 343.48857023257665 1333.1909300201137 343.48857023257665L1333.1909300201137 343.48857023257665Q1345.1226965683845 342.4286417320957 1352.0273736572317 340.30878473113387Q1358.962334417521 338.188927730172 1361.9301342188678 336.0387870577679L1361.9301342188678 336.0387870577679L1362.7780770192526 335.4028299574793L1363.202048419445 335.4028299574793Q1364.080274891272 335.4028299574793 1364.9282176916568 336.5838931437295Q1365.7761604920415 337.76495632997967 1365.9881461921377 338.8248848304606L1365.9881461921377 338.8248848304606Q1363.6563034910796 345.85069660507696 1363.6563034910796 357.3584917531556L1363.6563034910796 357.3584917531556L1363.6563034910796 453.17602819663097Q1363.6563034910796 463.16963977259394 1364.9282176916568 469.3475087468256L1364.9282176916568 469.3475087468256Q1365.5641747919453 471.4673657477874 1368.653109279061 472.01247183374903Q1371.7420437661772 472.52729424826833 1375.1338149677158 472.9512656484607L1375.1338149677158 472.9512656484607L1377.0719699400238 473.1935350199992Q1377.7079270403124 473.4055207200954 1377.7079270403124 475.7373634211534L1377.7079270403124 475.7373634211534Q1377.7079270403124 478.9171489225962 1376.405729168293 478.9171489225962L1376.405729168293 478.9171489225962Q1369.3799173936768 479.3411203227886 1361.9301342188678 481.1581406093273Q1354.4803510440593 482.975160895866 1350.4526227422316 484.03508939634696L1350.4526227422316 484.03508939634696ZM1331.9190158195365 473.6175064201916L1331.9190158195365 473.6175064201916Q1339.1568132942493 473.6175064201916 1343.2148252675192 470.3165862329796Q1347.2425535693465 467.01566604576755 1347.2425535693465 461.47375417182445L1347.2425535693465 461.47375417182445L1347.2425535693465 410.77888817739404Q1347.2425535693465 406.32718847537416 1342.4577334814612 402.39031118787364Q1337.672913393576 398.45343390037306 1327.0130610458818 398.45343390037306L1327.0130610458818 398.45343390037306Q1318.9273207707847 398.45343390037306 1312.9614374966495 403.54109070268146Q1306.9955542225139 408.6590311764322 1303.815768721071 417.077891837395Q1300.6056995481858 425.49675249835775 1300.6056995481858 435.27837837422453L1300.6056995481858 435.27837837422453Q1300.6056995481858 445.4839756502837 1304.3305911355906 454.2359566971119Q1308.0554827229948 462.95765407249775 1315.081294497611 468.28758024634465Q1322.1071062722276 473.6175064201916 1331.9190158195365 473.6175064201916ZM1430.916337764455 484.45906079653935L1430.916337764455 484.45906079653935Q1419.2268405877226 484.45906079653935 1409.4149310404132 478.2811918223076Q1399.6333051645465 472.103322848076 1393.7582729047376 461.77659088624756Q1387.9135243163719 451.4498589244191 1387.9135243163719 438.67014957576345L1387.9135243163719 438.67014957576345Q1387.9135243163719 423.77058322614596 1393.4554361903147 412.9290288497982Q1398.997348064258 402.05719080200817 1408.5669882400284 396.21244221364196Q1418.1669120872416 390.3374099538334 1430.0683949640702 390.3374099538334L1430.0683949640702 390.3374099538334Q1439.880304511379 390.3374099538334 1447.330087686188 394.0623015412378Q1454.7798708609967 397.7871931286422 1458.8378828342666 403.54109070268146L1458.8378828342666 403.54109070268146Q1462.653625435998 409.50697397681694 1464.4706457225366 415.59399193672164Q1466.287666009075 421.6507262251841 1466.287666009075 427.61660949931957L1466.287666009075 427.61660949931957Q1466.287666009075 431.85632350124325 1464.9854681370562 432.82540098739724Q1463.713553936479 433.79447847355124 1460.1097970348437 433.79447847355124L1460.1097970348437 433.79447847355124L1406.4471312390665 433.79447847355124Q1404.7512456382974 433.79447847355124 1404.7512456382974 434.85440697403214L1404.7512456382974 434.85440697403214Q1404.7512456382974 443.7880900495142 1408.3550025399322 451.9949650103808Q1411.9890431130098 460.2018399712473 1419.0148548876264 465.50148247365195Q1426.0406666622425 470.83140864749885 1436.2462639383016 470.83140864749885L1436.2462639383016 470.83140864749885Q1445.2102306852262 470.83140864749885 1451.2669649736886 468.1664455605754Q1457.323699262151 465.50148247365195 1460.1097970348437 463.38162547269013L1460.1097970348437 463.38162547269013L1461.593696935517 462.3216969722092Q1462.8656111360942 462.3216969722092 1462.8656111360942 465.07751107345956L1462.8656111360942 465.07751107345956Q1462.8656111360942 466.5916946455752 1461.593696935517 468.9235373466332L1461.593696935517 468.9235373466332Q1457.323699262151 474.8894206207687 1449.0259732869572 479.674240708654Q1440.7282473117639 484.45906079653935 1430.916337764455 484.45906079653935ZM1406.4471312390665 424.83051172662687L1406.4471312390665 424.83051172662687L1447.9660447864767 424.83051172662687Q1449.0259732869572 424.83051172662687 1449.0259732869572 422.710654725665L1449.0259732869572 422.710654725665Q1449.0259732869572 418.0166856521066 1446.57299590013 412.3839227638366Q1444.120018513303 406.75115987556654 1439.2443474110905 402.48116220220055Q1434.3383926374363 398.24144820027686 1426.8886094626273 398.24144820027686L1426.8886094626273 398.24144820027686Q1420.0747833881069 398.24144820027686 1415.1688286144527 402.81428258806596Q1410.262873840798 407.38711697585506 1407.7190454396437 413.2318655642213Q1405.1752170384893 419.1068978240299 1405.1752170384893 423.3466118259536L1405.1752170384893 423.3466118259536Q1405.1752170384893 424.83051172662687 1406.4471312390665 424.83051172662687ZM1502.6886390827344 482.7631751957698L1479.491346757923 483.82310369625077Q1478.6131202860965 482.975160895866 1478.6131202860965 480.2193467946156L1478.6131202860965 480.2193467946156Q1478.6131202860965 477.6452347220191 1479.491346757923 477.6452347220191L1479.491346757923 477.6452347220191Q1481.1872323586927 477.6452347220191 1484.1550321600394 477.0092776217306Q1487.1531156328283 476.373320521442 1489.6969440339826 475.31339202096103Q1492.240772435137 474.2534635204802 1492.4527581352331 473.4055207200954L1492.4527581352331 473.4055207200954Q1493.3309846070597 470.4074372473065 1493.633821321483 466.5916946455752Q1493.9669417073487 462.74566837240155 1493.9669417073487 458.47567069903556L1493.9669417073487 458.47567069903556L1493.9669417073487 418.2286713522028Q1493.9669417073487 410.1429310771055 1490.9688582345598 406.75115987556654L1490.9688582345598 406.75115987556654Q1488.8490012335978 404.17704780297004 1485.972052446578 403.32910500258527Q1483.0951036595584 402.48116220220055 1480.8541119728275 402.39031118787364Q1478.6131202860965 402.26917650210436 1478.6131202860965 401.845205101912L1478.6131202860965 401.845205101912Q1478.6131202860965 396.72726462816127 1479.9153181581155 396.5152789280651L1479.9153181581155 396.5152789280651Q1503.1126104829268 392.9115220264299 1506.7466510560043 391.851593525949L1506.7466510560043 391.851593525949L1510.3504079576392 390.7613813540258Q1511.198350758024 390.5493956539296 1511.4103364581201 392.4875506262376Q1511.6223221582163 394.3954219271032 1511.4103364581201 395.243364727488L1511.4103364581201 395.243364727488L1510.138422257543 405.90321707518183Q1513.9844485307167 400.1493195011425 1520.6771399194677 395.152513713161Q1527.4001149796609 390.1254242537372 1534.001955354085 390.1254242537372L1534.001955354085 390.1254242537372Q1546.327409631106 390.1254242537372 1550.5974073044722 396.3032932279689L1550.5974073044722 396.3032932279689Q1550.5974073044722 403.75307640277765 1548.265564603414 407.17513127575893Q1545.9034382309137 410.56690247729784 1542.5116670293746 410.56690247729784L1542.5116670293746 410.56690247729784Q1538.665640756201 410.56690247729784 1535.4858552547585 406.96314557566274L1535.4858552547585 406.96314557566274Q1532.2757860818733 403.32910500258527 1526.73387420793 403.32910500258527L1526.73387420793 403.32910500258527Q1522.4941602060067 403.32910500258527 1518.648133932833 406.20605378960494Q1514.8323913311015 409.0830025766246 1512.5913996443705 413.4438512643175Q1510.3504079576392 417.8046999520104 1510.3504079576392 422.4986690255688L1510.3504079576392 422.4986690255688L1510.3504079576392 454.44794239720807Q1510.3504079576392 460.6258113714397 1510.7743793578315 465.2894967735558Q1511.198350758024 469.98346584711413 1512.0462935584087 473.4055207200954L1512.0462935584087 473.4055207200954Q1512.470264958601 474.2534635204802 1515.0443770311977 475.31339202096103Q1517.588205432352 476.373320521442 1520.6771399194677 477.0092776217306Q1523.7660744065834 477.6452347220191 1525.0379886071605 477.6452347220191L1525.0379886071605 477.6452347220191Q1525.673945707449 477.6452347220191 1525.8859314075453 480.2193467946156Q1526.0979171076415 482.7631751957698 1525.673945707449 483.82310369625077L1525.673945707449 483.82310369625077L1502.6886390827344 482.7631751957698Z " fill="#3182ce" transform="matrix(0.5642986848368884,0,0,0.5642986848368883,0,68.41024460098552)"></path></g></svg><style>@media (prefers-color-scheme: light) { :root { filter: contrast(1) brightness(0.7); } }
</style></svg>